<svg width="6" height="10" viewBox="0 0 6 10" fill="none" xmlns="http://www.w3.org/2000/svg">
<path d="M4.69974 9.8564L0.117493 5.27415C0.0739773 5.23063 0.0435159 5.18712 0.0261095 5.1436C0.00870307 5.10009 0 5.05222 0 5C0 4.94778 0.00870307 4.89991 0.0261095 4.8564C0.0435159 4.81288 0.0739773 4.76936 0.117493 4.72585L4.69974 0.143603C4.79547 0.0478678 4.91732 0 5.06527 0C5.21323 0 5.33507 0.0478678 5.43081 0.143603C5.53525 0.248042 5.58747 0.372063 5.58747 0.515666C5.58747 0.659269 5.53525 0.78329 5.43081 0.887728L1.31854 5L5.43081 9.11227C5.54395 9.22541 5.59617 9.35161 5.58747 9.49086C5.57876 9.63011 5.52654 9.74761 5.43081 9.84334C5.32637 9.94778 5.20235 10 5.05875 10C4.91514 10 4.79547 9.95213 4.69974 9.8564V9.8564Z" fill="white"/>
</svg>
