<svg width="10" height="10" viewBox="0 0 10 10" fill="none" xmlns="http://www.w3.org/2000/svg">
<path d="M9.80153 0.5625C9.92653 0.6875 9.98903 0.836805 9.98903 1.01042C9.98903 1.18403 9.92653 1.33333 9.80153 1.45833L6.25987 5L9.82237 8.5625C9.94737 8.6875 10.0064 8.83681 9.99945 9.01042C9.99251 9.18403 9.92653 9.33333 9.80153 9.45833C9.67653 9.58333 9.5307 9.64583 9.36403 9.64583C9.19737 9.64583 9.05154 9.58333 8.92654 9.45833L4.9057 5.4375C4.83626 5.36806 4.78765 5.29861 4.75987 5.22917C4.73209 5.15972 4.7182 5.08333 4.7182 5C4.7182 4.91667 4.73209 4.84028 4.75987 4.77083C4.78765 4.70139 4.83626 4.63194 4.9057 4.5625L8.9057 0.5625C9.0307 0.4375 9.18001 0.375001 9.35362 0.375001C9.52723 0.375001 9.67653 0.4375 9.80153 0.5625V0.5625ZM0.655702 2.38419e-07C0.836257 2.38419e-07 0.985563 0.0590277 1.10362 0.177083C1.22167 0.295139 1.2807 0.444445 1.2807 0.625L1.2807 9.375C1.2807 9.55556 1.22167 9.70486 1.10362 9.82292C0.985563 9.94097 0.836257 10 0.655702 10C0.475146 10 0.32584 9.94097 0.207785 9.82292C0.0897289 9.70486 0.0307015 9.55556 0.0307015 9.375L0.0307015 0.625C0.0307015 0.444445 0.0897289 0.295139 0.207785 0.177083C0.32584 0.0590277 0.475146 2.38419e-07 0.655702 2.38419e-07Z" fill="white"/>
</svg>
