<svg width="10" height="10" viewBox="0 0 10 10" fill="none" xmlns="http://www.w3.org/2000/svg">
<path d="M0.198465 9.4375C0.0734651 9.3125 0.0109652 9.16319 0.0109652 8.98958C0.0109652 8.81597 0.0734651 8.66667 0.198465 8.54167L3.74013 5L0.177632 1.4375C0.0526317 1.3125 -0.0063962 1.16319 0.000548245 0.989583C0.00749269 0.815972 0.0734651 0.666667 0.198465 0.541667C0.323465 0.416667 0.469299 0.354167 0.635965 0.354167C0.802632 0.354167 0.948465 0.416667 1.07346 0.541667L5.0943 4.5625C5.16374 4.63194 5.21235 4.70139 5.24013 4.77083C5.26791 4.84028 5.2818 4.91667 5.2818 5C5.2818 5.08333 5.26791 5.15972 5.24013 5.22917C5.21235 5.29861 5.16374 5.36806 5.0943 5.4375L1.0943 9.4375C0.969298 9.5625 0.819993 9.625 0.646382 9.625C0.472771 9.625 0.323465 9.5625 0.198465 9.4375V9.4375ZM9.3443 10C9.16374 10 9.01444 9.94097 8.89638 9.82292C8.77833 9.70486 8.7193 9.55556 8.7193 9.375V0.625C8.7193 0.444444 8.77833 0.295139 8.89638 0.177083C9.01444 0.0590279 9.16374 0 9.3443 0C9.52485 0 9.67416 0.0590279 9.79222 0.177083C9.91027 0.295139 9.9693 0.444444 9.9693 0.625V9.375C9.9693 9.55556 9.91027 9.70486 9.79222 9.82292C9.67416 9.94097 9.52485 10 9.3443 10Z" fill="white"/>
</svg>
