<svg width="6" height="10" viewBox="0 0 6 10" fill="none" xmlns="http://www.w3.org/2000/svg">
<path d="M1.30026 0.143603L5.88251 4.72585C5.92602 4.76937 5.95648 4.81288 5.97389 4.8564C5.9913 4.89991 6 4.94778 6 5C6 5.05222 5.9913 5.10009 5.97389 5.1436C5.95648 5.18712 5.92602 5.23064 5.88251 5.27415L1.30026 9.8564C1.20453 9.95213 1.08268 10 0.934727 10C0.786772 10 0.664927 9.95213 0.569191 9.8564C0.464752 9.75196 0.412534 9.62794 0.412534 9.48433C0.412534 9.34073 0.464752 9.21671 0.569191 9.11227L4.68146 5L0.569191 0.887728C0.456049 0.774587 0.40383 0.64839 0.412534 0.509138C0.421237 0.369887 0.473456 0.252394 0.569191 0.156658C0.67363 0.0522195 0.797651 -4.51097e-07 0.941255 -4.51097e-07C1.08486 -4.51097e-07 1.20453 0.0478681 1.30026 0.143603V0.143603Z" fill="white"/>
</svg>
