<svg width="25" height="20" viewBox="0 0 25 20" fill="none" xmlns="http://www.w3.org/2000/svg">
<path d="M1.875 20C1.33333 20 0.885417 19.8229 0.53125 19.4688C0.177083 19.1146 0 18.6667 0 18.125V13.3438C0.770833 13.1771 1.41146 12.7865 1.92187 12.1719C2.43229 11.5573 2.6875 10.8333 2.6875 10C2.6875 9.16667 2.43229 8.4375 1.92187 7.8125C1.41146 7.1875 0.770833 6.80208 0 6.65625V1.875C0 1.33333 0.177083 0.885417 0.53125 0.53125C0.885417 0.177084 1.33333 0 1.875 0H23.125C23.6667 0 24.1146 0.177084 24.4688 0.53125C24.8229 0.885417 25 1.33333 25 1.875V6.65625C24.2292 6.80208 23.5885 7.1875 23.0781 7.8125C22.5677 8.4375 22.3125 9.16667 22.3125 10C22.3125 10.8333 22.5677 11.5573 23.0781 12.1719C23.5885 12.7865 24.2292 13.1771 25 13.3438V18.125C25 18.6667 24.8229 19.1146 24.4688 19.4688C24.1146 19.8229 23.6667 20 23.125 20H1.875ZM12.5 16.1562C12.75 16.1562 12.9687 16.0625 13.1562 15.875C13.3437 15.6875 13.4375 15.4687 13.4375 15.2187C13.4375 14.9687 13.3437 14.75 13.1562 14.5625C12.9687 14.375 12.75 14.2813 12.5 14.2813C12.25 14.2813 12.0313 14.375 11.8438 14.5625C11.6563 14.75 11.5625 14.9687 11.5625 15.2187C11.5625 15.4687 11.6563 15.6875 11.8438 15.875C12.0313 16.0625 12.25 16.1562 12.5 16.1562ZM12.5 10.9375C12.75 10.9375 12.9687 10.8437 13.1562 10.6562C13.3437 10.4687 13.4375 10.25 13.4375 10C13.4375 9.75 13.3437 9.53125 13.1562 9.34375C12.9687 9.15625 12.75 9.0625 12.5 9.0625C12.25 9.0625 12.0313 9.15625 11.8438 9.34375C11.6563 9.53125 11.5625 9.75 11.5625 10C11.5625 10.25 11.6563 10.4687 11.8438 10.6562C12.0313 10.8437 12.25 10.9375 12.5 10.9375ZM12.5 5.71875C12.75 5.71875 12.9687 5.625 13.1562 5.4375C13.3437 5.25 13.4375 5.03125 13.4375 4.78125C13.4375 4.53125 13.3437 4.3125 13.1562 4.125C12.9687 3.9375 12.75 3.84375 12.5 3.84375C12.25 3.84375 12.0313 3.9375 11.8438 4.125C11.6563 4.3125 11.5625 4.53125 11.5625 4.78125C11.5625 5.03125 11.6563 5.25 11.8438 5.4375C12.0313 5.625 12.25 5.71875 12.5 5.71875Z" fill="#36454F"/>
</svg>
