<svg width="20" height="20" viewBox="0 0 20 20" fill="none" xmlns="http://www.w3.org/2000/svg">
<path d="M18.4746 19.7175L11.6667 12.9096C11.1017 13.3992 10.4426 13.7806 9.68927 14.0537C8.93597 14.3267 8.13559 14.4633 7.28814 14.4633C5.25424 14.4633 3.53107 13.7571 2.11864 12.3446C0.706215 10.9322 0 9.22787 0 7.23164C0 5.2354 0.706215 3.53107 2.11864 2.11864C3.53107 0.706215 5.24482 0 7.25989 0C9.25612 0 10.9557 0.706215 12.3588 2.11864C13.7618 3.53107 14.4633 5.2354 14.4633 7.23164C14.4633 8.04143 14.3314 8.82298 14.0678 9.57627C13.8041 10.3296 13.4087 11.0358 12.8814 11.6949L19.7458 18.5028C19.9153 18.6535 20 18.8465 20 19.0819C20 19.3173 19.9058 19.5292 19.7175 19.7175C19.548 19.887 19.3409 19.9718 19.096 19.9718C18.8512 19.9718 18.6441 19.887 18.4746 19.7175ZM7.25989 12.7684C8.78531 12.7684 10.0847 12.2269 11.1582 11.1441C12.2316 10.0612 12.7684 8.75706 12.7684 7.23164C12.7684 5.70621 12.2316 4.40207 11.1582 3.31921C10.0847 2.23635 8.78531 1.69492 7.25989 1.69492C5.71563 1.69492 4.40207 2.23635 3.31921 3.31921C2.23635 4.40207 1.69492 5.70621 1.69492 7.23164C1.69492 8.75706 2.23635 10.0612 3.31921 11.1441C4.40207 12.2269 5.71563 12.7684 7.25989 12.7684Z" fill="white"/>
</svg>
