<svg width="20" height="20" viewBox="0 0 20 20" fill="none" xmlns="http://www.w3.org/2000/svg">
<path d="M10 20C7.22917 20 4.86979 19.026 2.92188 17.0781C0.973959 15.1302 0 12.7708 0 10C0 7.22917 0.973959 4.86979 2.92188 2.92188C4.86979 0.973959 7.22917 0 10 0C11.7708 0 13.3229 0.359375 14.6563 1.07813C15.9896 1.79688 17.1458 2.78125 18.125 4.03125V0.9375C18.125 0.666667 18.2135 0.442708 18.3906 0.265625C18.5677 0.0885418 18.7917 0 19.0625 0C19.3333 0 19.5573 0.0885418 19.7344 0.265625C19.9115 0.442708 20 0.666667 20 0.9375V7C20 7.27083 19.9115 7.49479 19.7344 7.67187C19.5573 7.84896 19.3333 7.9375 19.0625 7.9375H13C12.7292 7.9375 12.5052 7.84896 12.3281 7.67187C12.151 7.49479 12.0625 7.27083 12.0625 7C12.0625 6.72917 12.151 6.50521 12.3281 6.32812C12.5052 6.15104 12.7292 6.0625 13 6.0625H17.3125C16.5208 4.8125 15.5104 3.80208 14.2813 3.03125C13.0521 2.26042 11.625 1.875 10 1.875C7.72917 1.875 5.80729 2.66146 4.23437 4.23437C2.66146 5.80729 1.875 7.72917 1.875 10C1.875 12.2708 2.66146 14.1927 4.23437 15.7656C5.80729 17.3385 7.72917 18.125 10 18.125C11.625 18.125 13.1146 17.6927 14.4687 16.8281C15.8229 15.9635 16.8333 14.8021 17.5 13.3438C17.5833 13.1771 17.7188 13.0312 17.9063 12.9062C18.0938 12.7812 18.2812 12.7188 18.4687 12.7188C18.8229 12.7188 19.0781 12.8333 19.2344 13.0625C19.3906 13.2917 19.4062 13.5625 19.2812 13.875C18.5104 15.7292 17.2865 17.2135 15.6094 18.3281C13.9323 19.4427 12.0625 20 10 20Z" fill="white"/>
</svg>
